<?xml version="1.0" encoding="UTF-8" standalone="no"?>
<!-- Created with Inkscape (http://www.inkscape.org/) -->

<svg
   xmlns:dc="http://purl.org/dc/elements/1.1/"
   xmlns:cc="http://creativecommons.org/ns#"
   xmlns:rdf="http://www.w3.org/1999/02/22-rdf-syntax-ns#"
   xmlns:svg="http://www.w3.org/2000/svg"
   xmlns="http://www.w3.org/2000/svg"
   xmlns:xlink="http://www.w3.org/1999/xlink"
   xmlns:sodipodi="http://sodipodi.sourceforge.net/DTD/sodipodi-0.dtd"
   xmlns:inkscape="http://www.inkscape.org/namespaces/inkscape"
   width="132"
   height="32"
   id="svg2318"
   sodipodi:version="0.32"
   inkscape:version="0.92.4 (5da689c313, 2019-01-14)"
   sodipodi:docname="bar_meter_horizontal.svg"
   inkscape:output_extension="org.inkscape.output.svgz.inkscape"
   version="1.0">
  <sodipodi:namedview
     id="base"
     pagecolor="#ffffff"
     bordercolor="#666666"
     borderopacity="1.0"
     gridtolerance="10000"
     guidetolerance="10"
     objecttolerance="10"
     inkscape:pageopacity="1"
     inkscape:pageshadow="2"
     inkscape:zoom="16"
     inkscape:cx="55.640941"
     inkscape:cy="-23.563047"
     inkscape:document-units="px"
     inkscape:current-layer="layer1"
     inkscape:window-width="1280"
     inkscape:window-height="977"
     inkscape:window-x="0"
     inkscape:window-y="0"
     width="132px"
     height="32px"
     showgrid="false"
     inkscape:window-maximized="1">
    <inkscape:grid
       snapvisiblegridlinesonly="true"
       enabled="true"
       visible="true"
       empspacing="5"
       id="grid4569"
       type="xygrid" />
  </sodipodi:namedview>
  <defs
     id="defs2320">
    <linearGradient
       id="linearGradient4479">
      <stop
         id="stop4481"
         offset="0"
         style="stop-color:#000000;stop-opacity:0.07843138;" />
      <stop
         id="stop4483"
         offset="1"
         style="stop-color:#000000;stop-opacity:0;" />
    </linearGradient>
    <linearGradient
       id="linearGradient4249">
      <stop
         id="stop4251"
         offset="0"
         style="stop-color:#ffffff;stop-opacity:1;" />
      <stop
         style="stop-color:#ffffff;stop-opacity:0.78431374;"
         offset="0.47000003"
         id="stop4253" />
      <stop
         id="stop4255"
         offset="0.75125003"
         style="stop-color:#ffffff;stop-opacity:0.51724136;" />
      <stop
         id="stop4257"
         offset="1"
         style="stop-color:#ffffff;stop-opacity:1;" />
    </linearGradient>
    <linearGradient
       id="linearGradient3289">
      <stop
         id="stop3291"
         style="stop-color:#ffffff;stop-opacity:1"
         offset="0" />
      <stop
         id="stop3294"
         style="stop-color:#ffffff;stop-opacity:1"
         offset="1" />
    </linearGradient>
    <linearGradient
       id="linearGradient2916">
      <stop
         id="stop2918"
         style="stop-color:#ffffff;stop-opacity:1"
         offset="0" />
      <stop
         id="stop2920"
         style="stop-color:#ffffff;stop-opacity:0"
         offset="1" />
    </linearGradient>
    <linearGradient
       id="linearGradient3140">
      <stop
         id="stop3142"
         style="stop-color:#ffffff;stop-opacity:1"
         offset="0" />
      <stop
         id="stop3144"
         style="stop-color:#ffffff;stop-opacity:0"
         offset="1" />
    </linearGradient>
    <linearGradient
       id="linearGradient2895">
      <stop
         id="stop2897"
         style="stop-color:#ffffff;stop-opacity:1"
         offset="0" />
      <stop
         id="stop2899"
         style="stop-color:#ffffff;stop-opacity:0"
         offset="1" />
    </linearGradient>
    <linearGradient
       x1="38.875084"
       y1="67.528122"
       x2="90.409752"
       y2="67.528122"
       id="linearGradient6228"
       xlink:href="#linearGradient2916"
       gradientUnits="userSpaceOnUse"
       gradientTransform="matrix(0.511504,0,0,1.80649,68.030435,-6.0981568)" />
    <linearGradient
       x1="38.875084"
       y1="67.528122"
       x2="90.409752"
       y2="67.528122"
       id="linearGradient6233"
       xlink:href="#linearGradient2916"
       gradientUnits="userSpaceOnUse"
       gradientTransform="matrix(0.511504,0,0,0.96108,67.773305,4.8320565)" />
    <linearGradient
       x1="11.543377"
       y1="3.4375"
       x2="10.88339"
       y2="5.9006019"
       id="linearGradient6238"
       xlink:href="#linearGradient2895"
       gradientUnits="userSpaceOnUse"
       gradientTransform="matrix(5.467529,0,0,5.820575,24.290213,-2.0656323)" />
    <linearGradient
       x1="38.875084"
       y1="67.528122"
       x2="90.409752"
       y2="67.528122"
       id="linearGradient6243"
       xlink:href="#linearGradient2916"
       gradientUnits="userSpaceOnUse"
       gradientTransform="matrix(0.511504,0,0,0.77135,67.773305,6.6291413)" />
    <radialGradient
       cx="68.000046"
       cy="-117.34602"
       r="27.999956"
       fx="68.000046"
       fy="-117.34602"
       id="radialGradient9168"
       xlink:href="#linearGradient3140"
       gradientUnits="userSpaceOnUse"
       gradientTransform="matrix(0.990365,0,0,1.664158,16.251985,75.514833)" />
    <linearGradient
       x1="18.01074"
       y1="65.760353"
       x2="72.498932"
       y2="65.760353"
       id="linearGradient2867"
       xlink:href="#linearGradient3289"
       gradientUnits="userSpaceOnUse"
       gradientTransform="matrix(1.017716,0,0,0.960169,5.524222,-18.774756)" />
  </defs>
  <metadata
     id="metadata2323">
    <rdf:RDF>
      <cc:Work
         rdf:about="">
        <dc:format>image/svg+xml</dc:format>
        <dc:type
           rdf:resource="http://purl.org/dc/dcmitype/StillImage" />
        <dc:title />
      </cc:Work>
    </rdf:RDF>
  </metadata>
  <g
     id="layer1"
     inkscape:groupmode="layer"
     inkscape:label="Layer 1">
    <rect
       inkscape:export-ydpi="90"
       inkscape:export-xdpi="90"
       inkscape:export-filename="/home/pinheiro/Documents/pics/estilo/plasma/rect2996.png"
       ry="1.4393399"
       rx="1.4393399"
       y="15"
       x="-4.7494506e-08"
       height="16"
       width="132"
       id="background"
       style="opacity:0.01;fill:#ffffff;fill-opacity:1;stroke:none;stroke-width:2;stroke-linecap:round;stroke-linejoin:round;stroke-miterlimit:4;stroke-dasharray:none;stroke-dashoffset:1.08779998;stroke-opacity:1" />
    <rect
       y="1"
       x="0"
       height="12"
       width="65"
       id="label0"
       style="opacity:1;fill:#ffb9ca;fill-opacity:1;fill-rule:evenodd;stroke:none;stroke-width:3.19400001;stroke-linecap:round;stroke-linejoin:round;stroke-miterlimit:4;stroke-dasharray:none;stroke-opacity:0.50196078" />
    <rect
       style="opacity:1;fill:#ffb9ca;fill-opacity:1;fill-rule:evenodd;stroke:none;stroke-width:3.19400001;stroke-linecap:round;stroke-linejoin:round;stroke-miterlimit:4;stroke-dasharray:none;stroke-opacity:0.50196078"
       id="label1"
       width="65"
       height="12"
       x="67"
       y="1" />
    <rect
       style="opacity:1;fill:#ffb9ca;fill-opacity:1;fill-rule:evenodd;stroke:none;stroke-width:3.19400001;stroke-linecap:round;stroke-linejoin:round;stroke-miterlimit:4;stroke-dasharray:none;stroke-opacity:0.50196078"
       id="label2"
       width="65"
       height="12"
       x="35"
       y="1" />
    <path
       id="background-top"
       d="M 47.57367,36.329243 L 47.57367,37.329243 L 52.57367,37.329243 L 52.57367,36.329243 L 47.57367,36.329243 z"
       style="fill:#008080;fill-opacity:0.39215687;stroke:none;stroke-width:0.30000001;stroke-linecap:round;stroke-linejoin:round;stroke-miterlimit:4;stroke-opacity:1;opacity:0.05" />
    <path
       id="background-topright"
       d="M 52.57367,36.329243 L 52.57367,37.329243 L 53.57367,37.329243 C 53.524081,36.792177 53.115333,36.361133 52.57367,36.329243 z"
       style="fill:#008080;fill-opacity:0.39215687;stroke:none;stroke-width:0.30000001;stroke-linecap:round;stroke-linejoin:round;stroke-miterlimit:4;stroke-opacity:1;opacity:0.05" />
    <path
       id="background-topleft"
       d="M 47.57367,36.329243 C 47.035002,36.360955 46.627228,36.796369 46.57367,37.329243 L 47.57367,37.329243 L 47.57367,36.329243 z"
       style="fill:#008080;fill-opacity:0.39215687;stroke:none;stroke-width:0.30000001;stroke-linecap:round;stroke-linejoin:round;stroke-miterlimit:4;stroke-opacity:1;opacity:0.05" />
    <path
       id="background-center"
       d="M 47.57367,37.329243 L 47.57367,47.329243 L 52.57367,47.329243 L 52.57367,37.329243 L 47.57367,37.329243 z"
       style="fill:#008080;fill-opacity:0.39215687;stroke:none;stroke-width:0.30000001;stroke-linecap:round;stroke-linejoin:round;stroke-miterlimit:4;stroke-opacity:1;opacity:0.05" />
    <path
       style="fill:#008080;fill-opacity:0.39215687;stroke:none;stroke-width:0.30000001;stroke-linecap:round;stroke-linejoin:round;stroke-miterlimit:4;stroke-opacity:1;opacity:0.05"
       d="M 46.57367,37.329243 L 46.57367,47.329243 L 47.57367,47.329243 L 47.57367,37.329243 L 46.57367,37.329243 z"
       id="background-left" />
    <path
       id="background-right"
       d="M 52.57367,37.329243 L 52.57367,47.329243 L 53.57367,47.329243 L 53.57367,37.329243 L 52.57367,37.329243 z"
       style="fill:#008080;fill-opacity:0.39215687;stroke:none;stroke-width:0.30000001;stroke-linecap:round;stroke-linejoin:round;stroke-miterlimit:4;stroke-opacity:1;opacity:0.05" />
    <path
       style="fill:#008080;fill-opacity:0.39215687;stroke:none;stroke-width:0.30000001;stroke-linecap:round;stroke-linejoin:round;stroke-miterlimit:4;stroke-opacity:1;opacity:0.05"
       d="M 47.57367,48.329243 L 47.57367,47.329243 L 52.57367,47.329243 L 52.57367,48.329243 L 47.57367,48.329243 z"
       id="background-bottom" />
    <path
       style="fill:#008080;fill-opacity:0.39215687;stroke:none;stroke-width:0.30000001;stroke-linecap:round;stroke-linejoin:round;stroke-miterlimit:4;stroke-opacity:1;opacity:0.05"
       d="M 52.57367,48.329243 L 52.57367,47.329243 L 53.57367,47.329243 C 53.524081,47.866309 53.115333,48.297353 52.57367,48.329243 z"
       id="background-bottomright" />
    <path
       style="fill:#008080;fill-opacity:0.39215687;stroke:none;stroke-width:0.30000001;stroke-linecap:round;stroke-linejoin:round;stroke-miterlimit:4;stroke-opacity:1;opacity:0.05"
       d="M 47.57367,48.329243 C 47.035002,48.297531 46.627228,47.862117 46.57367,47.329243 L 47.57367,47.329243 L 47.57367,48.329243 z"
       id="background-bottomleft" />
    <rect
       y="41.19239"
       x="37.653435"
       height="3.5355339"
       width="3.4471455"
       id="hint-stretch-borders"
       style="opacity:1;fill:#ffb9ca;fill-opacity:1;fill-rule:nonzero;stroke:none;stroke-width:1.10000002;stroke-linecap:round;stroke-linejoin:miter;stroke-miterlimit:4;stroke-dasharray:none;stroke-dashoffset:0;stroke-opacity:1" />
    <g
       transform="matrix(1.3324171,0,0,1,-19.280196,0)"
       id="bar-active-top"
       style="fill:#ff557f;fill-opacity:1">
      <path
         id="path3795"
         d="m 58,51 0,2 2.99587,0 0,-2 L 58,51 z"
         style="fill:#ff557f;fill-opacity:1;stroke:none" />
      <path
         style="fill:#ff557f;fill-opacity:1;stroke:none"
         d="m 58,52 0,1 2.99587,0 0,-1 L 58,52 z"
         id="path2919" />
    </g>
    <g
       id="bar-active-topleft"
       style="fill:#ff557f;fill-opacity:1">
      <path
         id="path3859"
         d="m 57.999989,51 c -1.077336,0.06342 -1.892884,0.934252 -2,2 l 2,0 0,-2 z"
         style="fill:#ff557f;fill-opacity:1;stroke:none" />
      <path
         style="fill:#ff557f;fill-opacity:1;stroke:none"
         d="m 58,52 c -0.538668,0.03171 -0.946442,0.467126 -1,1 l 1,0 0,-1 z"
         id="path2925" />
    </g>
    <path
       id="bar-active-center"
       d="m 58.004122,53 0,8 3.991749,0 0,-8 -3.991749,0 z"
       style="fill:#ff557f;fill-opacity:1;stroke:none" />
    <g
       id="bar-active-left"
       style="fill:#ff557f;fill-opacity:1">
      <path
         id="path3799"
         d="m 58,53 0,8 -2,0 0,-8 2,0 z"
         style="fill:#ff557f;fill-opacity:1;stroke:none" />
      <path
         id="path2933"
         d="m 57.003791,53 0,8 1,0 0,-8 -1,0 z"
         style="fill:#ff557f;fill-opacity:1;stroke:none" />
    </g>
    <g
       transform="translate(1.000011,0)"
       id="bar-active-topright"
       style="fill:#ff557f;fill-opacity:1">
      <path
         style="fill:#ff557f;fill-opacity:1;stroke:none"
         d="m 60.999989,51 c 1.077336,0.06342 1.892884,0.934252 2,2 l -2,0 0,-2 z"
         id="path3805" />
      <path
         id="path2939"
         d="m 60.999989,52 c 0.538668,0.03171 0.946442,0.467126 1,1 l -1,0 0,-1 z"
         style="fill:#ff557f;fill-opacity:1;stroke:none" />
    </g>
    <g
       transform="translate(1.000002,0)"
       id="bar-active-right"
       style="fill:#ff557f;fill-opacity:1">
      <path
         style="fill:#ff557f;fill-opacity:1;stroke:none"
         d="m 63,53 0,8 -2,0 0,-8 2,0 z"
         id="path3801" />
      <path
         style="fill:#ff557f;fill-opacity:1;stroke:none"
         d="m 61.999998,53 0,8 -1,0 0,-8 1,0 z"
         id="path2945" />
    </g>
    <g
       transform="matrix(1.3324177,0,0,1,-19.277481,0)"
       id="bar-active-bottom"
       style="fill:#ff557f;fill-opacity:1">
      <path
         style="fill:#ff557f;fill-opacity:1;stroke:none"
         d="m 58.004131,63 0,-2 L 61,61 l 0,2 -2.995869,0 z"
         id="path3797" />
      <path
         id="path2949"
         d="m 58.004131,62 0,-1 L 61,61 l 0,1 -2.995869,0 z"
         style="fill:#ff557f;fill-opacity:1;stroke:none" />
    </g>
    <g
       id="bar-active-bottomleft"
       style="fill:#ff557f;fill-opacity:1">
      <path
         style="fill:#ff557f;fill-opacity:1;stroke:none"
         d="m 58,63 c -1.077336,-0.06342 -1.892884,-0.934252 -2,-2 l 2,0 0,2 z"
         id="path3807" />
      <path
         id="path2955"
         d="m 58.003791,62 c -0.538668,-0.03171 -0.946442,-0.467126 -1,-1 l 1,0 0,1 z"
         style="fill:#ff557f;fill-opacity:1;stroke:none" />
    </g>
    <g
       transform="translate(1.000011,0)"
       id="bar-active-bottomright"
       style="fill:#ff557f;fill-opacity:1">
      <path
         style="fill:#ff557f;fill-opacity:1;stroke:none"
         d="m 61,63 0,-2 2,0 c -0.09918,1.074132 -0.916674,1.93622 -2,2 z"
         id="path3809" />
      <path
         id="path2961"
         d="m 61.003791,62 0,-1 1,0 c -0.04959,0.537066 -0.458337,0.96811 -1,1 z"
         style="fill:#ff557f;fill-opacity:1;stroke:none" />
    </g>
    <g
       transform="matrix(1.3324171,0,0,1,-8.2719402,0)"
       id="bar-inactive-top"
       style="fill:#000000;fill-opacity:0.96800822">
      <path
         id="path5094"
         d="m 58,51 0,1 2.99587,0 0,-1 L 58,51 z"
         style="fill:#000000;fill-opacity:0.96800822;stroke:none" />
      <path
         style="fill:#000000;fill-opacity:0.96800822;stroke:none"
         d="m 58,52 0,1 2.99587,0 0,-1 L 58,52 z"
         id="path5096" />
    </g>
    <g
       id="bar-inactive-topleft"
       transform="translate(-0.74174422,0)"
       style="fill:#000000;fill-opacity:0.96800822">
      <path
         id="path5100"
         d="m 69.75,51 c -1.077336,0.06342 -1.892884,0.934252 -2,2 l 1,0 c 0.05356,-0.532874 0.461332,-0.96829 1,-1 l 0,-1 z"
         style="fill:#000000;fill-opacity:0.96800822;stroke:none" />
      <path
         style="fill:#000000;fill-opacity:0.96800822;stroke:none"
         d="m 69.75,52 c -0.538668,0.03171 -0.946442,0.467126 -1,1 l 1,0 0,-1 z"
         id="path5102" />
    </g>
    <path
       id="bar-inactive-center"
       d="m 69.012378,53 0,8 3.991749,0 0,-8 -3.991749,0 z"
       style="fill:#000000;fill-opacity:0.96800822;stroke:none" />
    <g
       id="bar-inactive-left"
       transform="translate(11.008256,0)"
       style="fill:#000000;fill-opacity:0.96800822">
      <path
         id="path5108"
         d="m 57,53 0,8 -1,0 0,-8 1,0 z"
         style="fill:#000000;fill-opacity:0.96800822;stroke:none" />
      <path
         id="path5110"
         d="m 57.003791,53 0,8 1,0 0,-8 -1,0 z"
         style="fill:#000000;fill-opacity:0.96800822;stroke:none" />
    </g>
    <g
       transform="matrix(-1,0,0,1,142.75826,0)"
       id="bar-inactive-topright"
       style="fill:#000000;fill-opacity:0.96800822">
      <path
         style="fill:#000000;fill-opacity:0.96800822;stroke:none"
         d="m 69.75,51 c -1.077336,0.06342 -1.892884,0.934252 -2,2 l 1,0 c 0.05356,-0.532874 0.461332,-0.96829 1,-1 l 0,-1 z"
         id="path5114" />
      <path
         id="path5116"
         d="m 69.75,52 c -0.538668,0.03171 -0.946442,0.467126 -1,1 l 1,0 0,-1 z"
         style="fill:#000000;fill-opacity:0.96800822;stroke:none" />
    </g>
    <g
       transform="matrix(-1,0,0,1,131.01205,0)"
       id="bar-inactive-right"
       style="fill:#000000;fill-opacity:0.96800822">
      <path
         style="fill:#000000;fill-opacity:0.96800822;stroke:none"
         d="m 57,53 0,8 -1,0 0,-8 1,0 z"
         id="path5120" />
      <path
         style="fill:#000000;fill-opacity:0.96800822;stroke:none"
         d="m 57.003791,53 0,8 1,0 0,-8 -1,0 z"
         id="path5122" />
    </g>
    <g
       id="bar-inactive-bottom"
       transform="matrix(1.3324171,0,0,-1,-8.2719402,114)"
       style="fill:#000000;fill-opacity:0.96800822">
      <path
         style="fill:#000000;fill-opacity:0.96800822;stroke:none"
         d="m 58,51 0,1 2.99587,0 0,-1 L 58,51 z"
         id="path5126" />
      <path
         id="path5128"
         d="m 58,52 0,1 2.99587,0 0,-1 L 58,52 z"
         style="fill:#000000;fill-opacity:0.96800822;stroke:none" />
    </g>
    <g
       transform="matrix(1,0,0,-1,-0.74174422,114)"
       id="bar-inactive-bottomleft"
       style="fill:#000000;fill-opacity:0.96800822">
      <path
         style="fill:#000000;fill-opacity:0.96800822;stroke:none"
         d="m 69.75,51 c -1.077336,0.06342 -1.892884,0.934252 -2,2 l 1,0 c 0.05356,-0.532874 0.461332,-0.96829 1,-1 l 0,-1 z"
         id="path5132" />
      <path
         id="path5134"
         d="m 69.75,52 c -0.538668,0.03171 -0.946442,0.467126 -1,1 l 1,0 0,-1 z"
         style="fill:#000000;fill-opacity:0.96800822;stroke:none" />
    </g>
    <g
       id="bar-inactive-bottomright"
       transform="matrix(-1,0,0,-1,142.75826,114)"
       style="fill:#000000;fill-opacity:0.96800822">
      <path
         id="path5138"
         d="m 69.75,51 c -1.077336,0.06342 -1.892884,0.934252 -2,2 l 1,0 c 0.05356,-0.532874 0.461332,-0.96829 1,-1 l 0,-1 z"
         style="fill:#000000;fill-opacity:0.96800822;stroke:none" />
      <path
         style="fill:#000000;fill-opacity:0.96800822;stroke:none"
         d="m 69.75,52 c -0.538668,0.03171 -0.946442,0.467126 -1,1 l 1,0 0,-1 z"
         id="path5140" />
    </g>
    <g
       transform="translate(334.69171,109.38481)"
       id="WhiteBackgroundLayer"
       style="display:none">
      <rect
         width="55.453815"
         height="104.63548"
         rx="2.1937749"
         ry="1.9589152"
         x="3.8541794"
         y="-7.9516411"
         id="Background"
         style="opacity:0.69897964;fill:url(#linearGradient2867);fill-opacity:1;fill-rule:nonzero;stroke:none" />
    </g>
    <g
       id="Overlay"
       style="display:none"
       transform="translate(302.87558,86.29596)">
      <rect
         width="128.05061"
         height="127.79347"
         x="1.0394411e-06"
         y="-0.054732177"
         id="spacerover"
         style="fill:none" />
      <rect
         width="13.170826"
         height="102.8517"
         rx="0"
         ry="0"
         x="70.721039"
         y="16.672493"
         id="over5"
         style="opacity:0.22540983;fill:url(#linearGradient6233);fill-opacity:1;fill-rule:nonzero;stroke:none" />
      <rect
         width="13.170826"
         height="31.863861"
         rx="0"
         ry="0"
         x="70.721039"
         y="16.132019"
         id="over4"
         style="opacity:0.22540983;fill:url(#linearGradient6243);fill-opacity:1;fill-rule:nonzero;stroke:none" />
      <path
         d="M 60.854303,17.942584 C 60.333693,17.942584 60,18.479714 60,19.03394 l 0,3.092181 c 10.885517,18.631489 33.205893,8.369177 48.52429,5.093002 l 0,-8.185183 c 0,-0.554226 -0.33368,-1.091356 -0.85429,-1.091356 l -46.815697,0 z"
         id="over3"
         style="opacity:0.48360656;fill:url(#linearGradient6238);fill-opacity:1;fill-rule:nonzero;stroke:none" />
      <rect
         width="13.170826"
         height="71.838249"
         rx="0"
         ry="0"
         x="70.978165"
         y="16.157631"
         id="over2"
         style="opacity:0.22540983;fill:url(#linearGradient6228);fill-opacity:1;fill-rule:nonzero;stroke:none" />
      <rect
         width="55.460392"
         height="61.206009"
         rx="2.0960798"
         ry="1.9391078"
         x="40.866707"
         y="-119.74129"
         transform="scale(1,-1)"
         id="over1"
         style="opacity:0.41000001;fill:url(#radialGradient9168);fill-opacity:1;fill-rule:nonzero;stroke:none" />
    </g>
  </g>
</svg>
